<?xml version="1.0" standalone="no"?>
<!DOCTYPE svg PUBLIC "-//W3C//DTD SVG 20010904//EN"
 "http://www.w3.org/TR/2001/REC-SVG-20010904/DTD/svg10.dtd">
<svg version="1.0" xmlns="http://www.w3.org/2000/svg"
 width="214.000000pt" height="205.000000pt" viewBox="0 0 214.000000 205.000000"
 preserveAspectRatio="xMidYMid meet">

<g transform="translate(0.000000,205.000000) scale(0.100000,-0.100000)"
fill="#000000" stroke="none">
<path d="M926 1989 c-194 -28 -376 -115 -521 -247 -158 -144 -272 -355 -305
-562 -50 -318 57 -630 292 -858 252 -245 632 -332 972 -225 328 103 564 355
658 703 32 122 32 328 0 450 -94 347 -331 600 -657 703 -139 44 -297 57 -439
36z m387 -53 c174 -51 308 -129 421 -244 92 -94 128 -144 181 -249 183 -364
107 -806 -188 -1093 -120 -116 -261 -195 -435 -242 -94 -26 -324 -31 -412 -9
-313 76 -542 256 -670 526 -133 282 -115 622 48 887 154 252 378 396 702 452
14 3 79 3 145 1 91 -3 141 -10 208 -29z"/>
<path d="M961 1910 c-127 -18 -298 -82 -396 -150 -71 -49 -172 -148 -220 -215
-79 -112 -85 -108 93 -58 86 24 263 74 392 110 129 36 329 92 443 124 115 33
215 59 223 59 33 0 9 23 -53 51 -144 66 -344 98 -482 79z"/>
<path d="M1700 1436 c-63 -18 -221 -63 -350 -99 -314 -88 -354 -100 -358 -103
-4 -3 60 -230 188 -664 44 -151 88 -303 98 -338 11 -41 22 -62 32 -62 32 1
188 72 250 115 76 52 166 129 180 154 8 16 -4 14 -93 -12 -125 -36 -215 -39
-274 -8 -58 29 -117 101 -136 163 -82 271 -177 611 -173 616 10 9 310 93 320
89 7 -3 24 -47 38 -98 14 -52 44 -157 66 -234 22 -77 46 -159 52 -182 21 -82
48 -88 200 -47 195 52 187 47 202 112 18 83 15 311 -5 396 -21 85 -91 236
-109 235 -7 0 -65 -15 -128 -33z"/>
<path d="M356 1058 l-179 -51 7 -77 c20 -241 151 -468 360 -625 61 -45 138
-84 234 -119 81 -29 82 -27 58 46 -8 24 -40 129 -70 233 -64 223 -139 482
-167 578 -17 57 -23 67 -42 66 -12 0 -102 -23 -201 -51z"/>
</g>
</svg>
